<svg width="314" height="28" viewBox="0 0 314 28" fill="none" xmlns="http://www.w3.org/2000/svg">
<path d="M0.601562 1.23047H10.1113C12.2559 1.23047 13.8906 1.39453 15.0156 1.72266C16.5273 2.16797 17.8223 2.95898 18.9004 4.0957C19.9785 5.23242 20.7988 6.62695 21.3613 8.2793C21.9238 9.91992 22.2051 11.9473 22.2051 14.3613C22.2051 16.4824 21.9414 18.3105 21.4141 19.8457C20.7695 21.7207 19.8496 23.2383 18.6543 24.3984C17.752 25.2773 16.5332 25.9629 14.998 26.4551C13.8496 26.8184 12.3145 27 10.3926 27H0.601562V1.23047ZM5.80469 5.58984V22.6582H9.68945C11.1426 22.6582 12.1914 22.5762 12.8359 22.4121C13.6797 22.2012 14.377 21.8438 14.9277 21.3398C15.4902 20.8359 15.9473 20.0098 16.2988 18.8613C16.6504 17.7012 16.8262 16.125 16.8262 14.1328C16.8262 12.1406 16.6504 10.6113 16.2988 9.54492C15.9473 8.47852 15.4551 7.64648 14.8223 7.04883C14.1895 6.45117 13.3867 6.04688 12.4141 5.83594C11.6875 5.67188 10.2637 5.58984 8.14258 5.58984H5.80469ZM23.837 17.4023C23.837 15.7617 24.2413 14.1738 25.0499 12.6387C25.8585 11.1035 27.0011 9.93164 28.4777 9.12305C29.9659 8.31445 31.6241 7.91016 33.4523 7.91016C36.2765 7.91016 38.5909 8.83008 40.3956 10.6699C42.2003 12.498 43.1027 14.8125 43.1027 17.6133C43.1027 20.4375 42.1886 22.7812 40.3605 24.6445C38.5441 26.4961 36.253 27.4219 33.4874 27.4219C31.7765 27.4219 30.1417 27.0352 28.5831 26.2617C27.0362 25.4883 25.8585 24.3574 25.0499 22.8691C24.2413 21.3691 23.837 19.5469 23.837 17.4023ZM28.8995 17.666C28.8995 19.5176 29.339 20.9355 30.2179 21.9199C31.0968 22.9043 32.1808 23.3965 33.4698 23.3965C34.7589 23.3965 35.837 22.9043 36.7042 21.9199C37.5831 20.9355 38.0226 19.5059 38.0226 17.6309C38.0226 15.8027 37.5831 14.3965 36.7042 13.4121C35.837 12.4277 34.7589 11.9355 33.4698 11.9355C32.1808 11.9355 31.0968 12.4277 30.2179 13.4121C29.339 14.3965 28.8995 15.8145 28.8995 17.666ZM62.3479 27H57.4084V17.4727C57.4084 15.457 57.303 14.1562 57.092 13.5703C56.8811 12.9727 56.5354 12.5098 56.0549 12.1816C55.5862 11.8535 55.0178 11.6895 54.3498 11.6895C53.4944 11.6895 52.7268 11.9238 52.0471 12.3926C51.3674 12.8613 50.8987 13.4824 50.6409 14.2559C50.3948 15.0293 50.2717 16.459 50.2717 18.5449V27H45.3323V8.33203H49.9202V11.0742C51.5491 8.96484 53.5998 7.91016 56.0725 7.91016C57.1623 7.91016 58.1584 8.10937 59.0608 8.50781C59.9631 8.89453 60.6428 9.39258 61.0998 10.002C61.5686 10.6113 61.8909 11.3027 62.0666 12.0762C62.2541 12.8496 62.3479 13.957 62.3479 15.3984V27ZM78.0423 27V24.2051C77.3627 25.2012 76.4662 25.9863 75.3529 26.5605C74.2513 27.1348 73.0853 27.4219 71.8548 27.4219C70.6009 27.4219 69.4759 27.1465 68.4798 26.5957C67.4837 26.0449 66.763 25.2715 66.3177 24.2754C65.8724 23.2793 65.6498 21.9023 65.6498 20.1445V8.33203H70.5892V16.9102C70.5892 19.5352 70.6771 21.1465 70.8529 21.7441C71.0404 22.3301 71.3744 22.7988 71.8548 23.1504C72.3353 23.4902 72.9447 23.6602 73.683 23.6602C74.5267 23.6602 75.2826 23.4316 75.9505 22.9746C76.6185 22.5059 77.0755 21.9316 77.3216 21.252C77.5677 20.5605 77.6908 18.8789 77.6908 16.207V8.33203H82.6302V27H78.0423ZM94.7036 8.33203V12.2695H91.3286V19.793C91.3286 21.3164 91.3579 22.207 91.4165 22.4648C91.4868 22.7109 91.6333 22.916 91.8559 23.0801C92.0903 23.2441 92.3716 23.3262 92.6997 23.3262C93.1567 23.3262 93.8188 23.168 94.686 22.8516L95.1079 26.6836C93.9594 27.1758 92.6587 27.4219 91.2055 27.4219C90.3149 27.4219 89.5122 27.2754 88.7973 26.9824C88.0825 26.6777 87.5552 26.291 87.2153 25.8223C86.8872 25.3418 86.6587 24.6973 86.5298 23.8887C86.4243 23.3145 86.3716 22.1543 86.3716 20.4082V12.2695H84.104V8.33203H86.3716V4.62305L91.3286 1.74023V8.33203H94.7036ZM94.7711 21.6738L99.7281 20.918C99.9391 21.8789 100.367 22.6113 101.011 23.1152C101.656 23.6074 102.558 23.8535 103.718 23.8535C104.996 23.8535 105.957 23.6191 106.601 23.1504C107.035 22.8223 107.252 22.3828 107.252 21.832C107.252 21.457 107.134 21.1465 106.9 20.9004C106.654 20.666 106.103 20.4492 105.248 20.25C101.263 19.3711 98.7379 18.5684 97.6715 17.8418C96.1949 16.834 95.4566 15.4336 95.4566 13.6406C95.4566 12.0234 96.0953 10.6641 97.3727 9.5625C98.65 8.46094 100.63 7.91016 103.314 7.91016C105.869 7.91016 107.767 8.32617 109.009 9.1582C110.252 9.99023 111.107 11.2207 111.576 12.8496L106.918 13.7109C106.718 12.9844 106.338 12.4277 105.775 12.041C105.224 11.6543 104.433 11.4609 103.402 11.4609C102.101 11.4609 101.17 11.6426 100.607 12.0059C100.232 12.2637 100.045 12.5977 100.045 13.0078C100.045 13.3594 100.209 13.6582 100.537 13.9043C100.982 14.2324 102.517 14.6953 105.142 15.293C107.779 15.8906 109.619 16.623 110.662 17.4902C111.693 18.3691 112.209 19.5938 112.209 21.1641C112.209 22.875 111.494 24.3457 110.064 25.5762C108.634 26.8066 106.519 27.4219 103.718 27.4219C101.175 27.4219 99.1598 26.9062 97.6715 25.875C96.1949 24.8438 95.2281 23.4434 94.7711 21.6738ZM146.164 23.8535L143.176 27.668C141.711 26.9531 140.305 25.9688 138.957 24.7148C137.914 25.6523 136.806 26.3438 135.635 26.7891C134.463 27.2344 133.068 27.457 131.451 27.457C128.24 27.457 125.826 26.5547 124.209 24.75C122.955 23.3555 122.328 21.75 122.328 19.9336C122.328 18.2812 122.82 16.7988 123.805 15.4863C124.789 14.1621 126.26 13.0137 128.217 12.041C127.338 10.998 126.676 10.0078 126.23 9.07031C125.785 8.12109 125.562 7.22461 125.562 6.38086C125.562 4.82227 126.183 3.50391 127.426 2.42578C128.68 1.33594 130.461 0.791016 132.769 0.791016C134.996 0.791016 136.736 1.35937 137.99 2.49609C139.244 3.63281 139.871 5.02148 139.871 6.66211C139.871 7.70508 139.56 8.69531 138.939 9.63281C138.318 10.5703 137.064 11.6309 135.178 12.8145L138.764 17.543C139.185 16.793 139.549 15.8145 139.853 14.6074L144.318 15.627C143.873 17.209 143.486 18.3691 143.158 19.1074C142.83 19.834 142.478 20.4434 142.103 20.9355C142.654 21.4512 143.363 22.0195 144.23 22.6406C145.109 23.25 145.754 23.6543 146.164 23.8535ZM132.717 9.84375L134.053 8.82422C135.037 8.0625 135.529 7.30664 135.529 6.55664C135.529 5.92383 135.289 5.38477 134.808 4.93945C134.34 4.49414 133.701 4.27148 132.892 4.27148C132.107 4.27148 131.492 4.4707 131.047 4.86914C130.601 5.25586 130.379 5.70703 130.379 6.22266C130.379 6.83203 130.754 7.57031 131.504 8.4375L132.717 9.84375ZM130.783 15.2051C129.646 15.7793 128.797 16.4707 128.234 17.2793C127.672 18.0879 127.39 18.9141 127.39 19.7578C127.39 20.8242 127.736 21.6973 128.428 22.377C129.131 23.0449 130.068 23.3789 131.24 23.3789C132.014 23.3789 132.758 23.2266 133.473 22.9219C134.187 22.6172 134.967 22.1133 135.81 21.4102L130.783 15.2051ZM172.649 17.5254L177.693 19.125C176.92 21.9375 175.631 24.0293 173.826 25.4004C172.033 26.7598 169.754 27.4395 166.988 27.4395C163.566 27.4395 160.754 26.2734 158.551 23.9414C156.348 21.5977 155.246 18.3984 155.246 14.3438C155.246 10.0547 156.354 6.72656 158.568 4.35938C160.783 1.98047 163.695 0.791016 167.305 0.791016C170.457 0.791016 173.018 1.72266 174.986 3.58594C176.158 4.6875 177.037 6.26953 177.623 8.33203L172.473 9.5625C172.168 8.22656 171.529 7.17188 170.557 6.39844C169.596 5.625 168.424 5.23828 167.041 5.23828C165.131 5.23828 163.578 5.92383 162.383 7.29492C161.199 8.66602 160.607 10.8867 160.607 13.957C160.607 17.2148 161.193 19.5352 162.365 20.918C163.537 22.3008 165.061 22.9922 166.936 22.9922C168.318 22.9922 169.508 22.5527 170.504 21.6738C171.5 20.7949 172.215 19.4121 172.649 17.5254ZM185.443 1.23047V10.7051C187.036 8.8418 188.941 7.91016 191.155 7.91016C192.292 7.91016 193.318 8.12109 194.232 8.54297C195.146 8.96484 195.831 9.50391 196.288 10.1602C196.757 10.8164 197.073 11.543 197.238 12.3398C197.413 13.1367 197.501 14.373 197.501 16.0488V27H192.562V17.1387C192.562 15.1816 192.468 13.9395 192.28 13.4121C192.093 12.8848 191.759 12.4688 191.279 12.1641C190.81 11.8477 190.218 11.6895 189.503 11.6895C188.683 11.6895 187.95 11.8887 187.306 12.2871C186.661 12.6855 186.187 13.2891 185.882 14.0977C185.589 14.8945 185.443 16.0781 185.443 17.6484V27H180.503V1.23047H185.443ZM199.766 17.4023C199.766 15.7617 200.17 14.1738 200.979 12.6387C201.787 11.1035 202.93 9.93164 204.407 9.12305C205.895 8.31445 207.553 7.91016 209.381 7.91016C212.205 7.91016 214.52 8.83008 216.325 10.6699C218.129 12.498 219.032 14.8125 219.032 17.6133C219.032 20.4375 218.117 22.7812 216.289 24.6445C214.473 26.4961 212.182 27.4219 209.416 27.4219C207.705 27.4219 206.071 27.0352 204.512 26.2617C202.965 25.4883 201.787 24.3574 200.979 22.8691C200.17 21.3691 199.766 19.5469 199.766 17.4023ZM204.828 17.666C204.828 19.5176 205.268 20.9355 206.147 21.9199C207.026 22.9043 208.11 23.3965 209.399 23.3965C210.688 23.3965 211.766 22.9043 212.633 21.9199C213.512 20.9355 213.951 19.5059 213.951 17.6309C213.951 15.8027 213.512 14.3965 212.633 13.4121C211.766 12.4277 210.688 11.9355 209.399 11.9355C208.11 11.9355 207.026 12.4277 206.147 13.4121C205.268 14.3965 204.828 15.8145 204.828 17.666ZM237.574 13.8516L232.705 14.7305C232.54 13.7578 232.165 13.0254 231.58 12.5332C231.005 12.041 230.255 11.7949 229.33 11.7949C228.099 11.7949 227.115 12.2227 226.376 13.0781C225.65 13.9219 225.287 15.3398 225.287 17.332C225.287 19.5469 225.656 21.1113 226.394 22.0254C227.144 22.9395 228.146 23.3965 229.4 23.3965C230.337 23.3965 231.105 23.1328 231.703 22.6055C232.3 22.0664 232.722 21.1465 232.968 19.8457L237.82 20.6719C237.316 22.8984 236.349 24.5801 234.919 25.7168C233.49 26.8535 231.574 27.4219 229.171 27.4219C226.441 27.4219 224.261 26.5605 222.632 24.8379C221.015 23.1152 220.206 20.7305 220.206 17.6836C220.206 14.6016 221.021 12.2051 222.65 10.4941C224.279 8.77148 226.482 7.91016 229.259 7.91016C231.533 7.91016 233.337 8.40234 234.673 9.38672C236.021 10.3594 236.988 11.8477 237.574 13.8516ZM238.573 17.4023C238.573 15.7617 238.977 14.1738 239.786 12.6387C240.594 11.1035 241.737 9.93164 243.213 9.12305C244.702 8.31445 246.36 7.91016 248.188 7.91016C251.012 7.91016 253.327 8.83008 255.131 10.6699C256.936 12.498 257.838 14.8125 257.838 17.6133C257.838 20.4375 256.924 22.7812 255.096 24.6445C253.28 26.4961 250.989 27.4219 248.223 27.4219C246.512 27.4219 244.878 27.0352 243.319 26.2617C241.772 25.4883 240.594 24.3574 239.786 22.8691C238.977 21.3691 238.573 19.5469 238.573 17.4023ZM243.635 17.666C243.635 19.5176 244.075 20.9355 244.954 21.9199C245.833 22.9043 246.917 23.3965 248.206 23.3965C249.495 23.3965 250.573 22.9043 251.44 21.9199C252.319 20.9355 252.758 19.5059 252.758 17.6309C252.758 15.8027 252.319 14.3965 251.44 13.4121C250.573 12.4277 249.495 11.9355 248.206 11.9355C246.917 11.9355 245.833 12.4277 244.954 13.4121C244.075 14.3965 243.635 15.8145 243.635 17.666ZM260.103 27V1.23047H265.043V27H260.103ZM272.194 14.0273L267.712 13.2188C268.216 11.4141 269.083 10.0781 270.313 9.21094C271.544 8.34375 273.372 7.91016 275.798 7.91016C278.001 7.91016 279.641 8.17383 280.72 8.70117C281.798 9.2168 282.554 9.87891 282.987 10.6875C283.432 11.4844 283.655 12.9551 283.655 15.0996L283.602 20.8652C283.602 22.5059 283.679 23.7188 283.831 24.5039C283.995 25.2773 284.294 26.1094 284.727 27H279.841C279.712 26.6719 279.554 26.1855 279.366 25.541C279.284 25.248 279.225 25.0547 279.19 24.9609C278.346 25.7812 277.444 26.3965 276.483 26.8066C275.522 27.2168 274.497 27.4219 273.407 27.4219C271.485 27.4219 269.968 26.9004 268.854 25.8574C267.753 24.8145 267.202 23.4961 267.202 21.9023C267.202 20.8477 267.454 19.9102 267.958 19.0898C268.462 18.2578 269.165 17.625 270.067 17.1914C270.981 16.7461 272.294 16.3594 274.005 16.0312C276.313 15.5977 277.913 15.1934 278.804 14.8184V14.3262C278.804 13.377 278.569 12.7031 278.1 12.3047C277.632 11.8945 276.747 11.6895 275.446 11.6895C274.567 11.6895 273.882 11.8652 273.389 12.2168C272.897 12.5566 272.499 13.1602 272.194 14.0273ZM278.804 18.0352C278.171 18.2461 277.169 18.498 275.798 18.791C274.427 19.084 273.53 19.3711 273.108 19.6523C272.464 20.1094 272.141 20.6895 272.141 21.3926C272.141 22.084 272.399 22.6816 272.915 23.1855C273.43 23.6895 274.087 23.9414 274.884 23.9414C275.774 23.9414 276.624 23.6484 277.432 23.0625C278.03 22.6172 278.423 22.0723 278.61 21.4277C278.739 21.0059 278.804 20.2031 278.804 19.0195V18.0352ZM295.482 8.33203V12.2695H292.107V19.793C292.107 21.3164 292.137 22.207 292.195 22.4648C292.266 22.7109 292.412 22.916 292.635 23.0801C292.869 23.2441 293.15 23.3262 293.478 23.3262C293.935 23.3262 294.598 23.168 295.465 22.8516L295.887 26.6836C294.738 27.1758 293.437 27.4219 291.984 27.4219C291.094 27.4219 290.291 27.2754 289.576 26.9824C288.861 26.6777 288.334 26.291 287.994 25.8223C287.666 25.3418 287.437 24.6973 287.309 23.8887C287.203 23.3145 287.15 22.1543 287.15 20.4082V12.2695H284.883V8.33203H287.15V4.62305L292.107 1.74023V8.33203H295.482ZM308.101 21.0586L313.022 21.8848C312.39 23.6895 311.388 25.0664 310.017 26.0156C308.657 26.9531 306.952 27.4219 304.901 27.4219C301.655 27.4219 299.253 26.3613 297.694 24.2402C296.464 22.541 295.849 20.3965 295.849 17.8066C295.849 14.7129 296.657 12.293 298.274 10.5469C299.892 8.78906 301.937 7.91016 304.409 7.91016C307.187 7.91016 309.378 8.83008 310.983 10.6699C312.589 12.498 313.356 15.3047 313.286 19.0898H300.911C300.946 20.5547 301.345 21.6973 302.106 22.5176C302.868 23.3262 303.817 23.7305 304.954 23.7305C305.728 23.7305 306.378 23.5195 306.905 23.0977C307.433 22.6758 307.831 21.9961 308.101 21.0586ZM308.382 16.0664C308.347 14.6367 307.978 13.5527 307.274 12.8145C306.571 12.0645 305.716 11.6895 304.708 11.6895C303.63 11.6895 302.739 12.082 302.036 12.8672C301.333 13.6523 300.987 14.7188 300.999 16.0664H308.382Z" fill="white"/>
</svg>
